<svg width="50" height="50" viewBox="0 0 50 50" fill="none" xmlns="http://www.w3.org/2000/svg">
<path d="M19.7917 23.9583C19.7917 21.0819 22.1236 18.75 25.0001 18.75C27.8765 18.75 30.2084 21.0819 30.2084 23.9583C30.2084 26.8348 27.8765 29.1667 25.0001 29.1667C22.1236 29.1667 19.7917 26.8348 19.7917 23.9583Z" fill="#D723FF"/>
<path d="M6.25 24.1354C6.25 21.2588 8.58185 18.927 11.4583 18.927C14.3348 18.927 16.6667 21.2588 16.6667 24.1354C16.6667 27.0119 14.3348 29.3438 11.4583 29.3438C8.58185 29.3438 6.25 27.0119 6.25 24.1354Z" fill="#D723FF"/>
<path d="M13.0208 12.499C13.0208 9.6225 15.3526 7.29065 18.2291 7.29065C21.1055 7.29065 23.4374 9.6225 23.4374 12.499C23.4374 15.3755 21.1055 17.7073 18.2291 17.7073C15.3526 17.7073 13.0208 15.3755 13.0208 12.499Z" fill="#D723FF"/>
<path d="M26.5625 12.499C26.5625 9.6225 28.8944 7.29065 31.7708 7.29065C34.6473 7.29065 36.9792 9.6225 36.9792 12.499C36.9792 15.3755 34.6473 17.7073 31.7708 17.7073C28.8944 17.7073 26.5625 15.3755 26.5625 12.499Z" fill="#D723FF"/>
<path d="M33.3333 24.1354C33.3333 21.2588 35.6651 18.927 38.5416 18.927C41.418 18.927 43.7499 21.2588 43.7499 24.1354C43.7499 27.0119 41.418 29.3438 38.5416 29.3438C35.6651 29.3438 33.3333 27.0119 33.3333 24.1354Z" fill="#D723FF"/>
<path d="M16.6667 33.8542C16.6667 32.9913 17.3663 32.2917 18.2292 32.2917H31.7709C32.1853 32.2917 32.5828 32.4563 32.8757 32.7494C33.1688 33.0423 33.3334 33.4398 33.3334 33.8542C33.3334 33.8542 33.3334 35.7588 33.3334 36.9792V36.9834V36.9881L33.3332 36.9992L33.3328 37.0269C33.3324 37.0481 33.3315 37.0744 33.3303 37.1054C33.3276 37.1675 33.3226 37.2492 33.3134 37.3477C33.2951 37.544 33.2601 37.8104 33.192 38.1244C33.0567 38.7475 32.7851 39.5875 32.2328 40.4359C31.067 42.2267 28.8515 43.75 24.9897 43.75C21.1361 43.75 18.926 42.225 17.7636 40.434C17.2131 39.5856 16.9424 38.7461 16.8077 38.1234C16.7399 37.8098 16.7048 37.5434 16.6866 37.3473C16.6775 37.2488 16.6725 37.1673 16.6699 37.1052C16.6685 37.0742 16.6677 37.0479 16.6673 37.0269L16.6669 36.999L16.6668 36.9881L16.6667 36.9834V33.8542Z" fill="#FF7373"/>
<path d="M14.9342 32.2917C14.7092 32.7652 14.5833 33.295 14.5833 33.8542L14.5834 36.9961L14.5834 37.0152L14.5841 37.0598L14.5843 37.0704C14.5851 37.1065 14.5864 37.1484 14.5884 37.1952C14.5925 37.2892 14.5996 37.405 14.6121 37.5396C14.6369 37.8075 14.6835 38.1577 14.7714 38.5638C14.9449 39.3659 15.2948 40.4569 16.016 41.5681C16.0465 41.615 16.0774 41.6617 16.1088 41.7081C14.9225 42.3215 13.3944 42.7084 11.4479 42.7084C7.59435 42.7084 5.38423 41.1834 4.2219 39.3923C3.67137 38.544 3.40067 37.7044 3.26596 37.0817C3.19812 36.7681 3.16306 36.5017 3.14487 36.3056C3.13575 36.2071 3.13079 36.1256 3.1281 36.0636C3.12635 36.0231 3.125 35.9417 3.125 35.9417V33.8542C3.125 32.9913 3.82456 32.2917 4.6875 32.2917H14.9342Z" fill="#FF7373"/>
<path d="M33.8867 41.7104C35.0694 42.3223 36.5923 42.7084 38.5311 42.7084C42.393 42.7084 44.6084 41.185 45.7742 39.3942C46.3265 38.5459 46.5982 37.7059 46.7334 37.0827C46.8015 36.7688 46.8367 36.5023 46.8551 36.3061C46.864 36.2075 46.869 36.1259 46.8717 36.0638C46.8732 36.0327 46.874 36.0065 46.8744 35.9852L46.8748 35.9575V35.9465V35.9417V33.8542C46.8748 33.4398 46.7103 33.0423 46.4173 32.7494C46.1242 32.4563 45.7269 32.2917 45.3123 32.2917H35.0648C35.2942 32.7754 35.4165 33.3086 35.4165 33.8542V36.9863V36.9913V37.0044L35.4163 37.0321L35.4155 37.0706C35.4148 37.1069 35.4136 37.1486 35.4115 37.1956C35.4073 37.2898 35.4003 37.4059 35.3878 37.5406C35.3628 37.8088 35.3159 38.1594 35.2278 38.5661C35.0534 39.369 34.7021 40.4609 33.9786 41.5725C33.9484 41.6188 33.9178 41.6648 33.8867 41.7104Z" fill="#FF7373"/>
</svg>
