<svg width="50" height="50" viewBox="0 0 50 50" fill="none" xmlns="http://www.w3.org/2000/svg">
<g clip-path="url(#clip0_60_533)">
<path d="M20.8333 31.25H8.33333C7.7808 31.25 7.25089 31.4695 6.86019 31.8602C6.46949 32.2509 6.25 32.7808 6.25 33.3333V43.75C6.25 44.3025 6.46949 44.8324 6.86019 45.2231C7.25089 45.6138 7.7808 45.8333 8.33333 45.8333H20.8333C21.3859 45.8333 21.9158 45.6138 22.3065 45.2231C22.6972 44.8324 22.9167 44.3025 22.9167 43.75V33.3333C22.9167 32.7808 22.6972 32.2509 22.3065 31.8602C21.9158 31.4695 21.3859 31.25 20.8333 31.25Z" fill="#5482FE"/>
<path d="M20.8333 4.16669H8.33333C7.7808 4.16669 7.25089 4.38618 6.86019 4.77688C6.46949 5.16758 6.25 5.69749 6.25 6.25002V25C6.25 25.5526 6.46949 26.0825 6.86019 26.4732C7.25089 26.8639 7.7808 27.0834 8.33333 27.0834H20.8333C21.3859 27.0834 21.9158 26.8639 22.3065 26.4732C22.6972 26.0825 22.9167 25.5526 22.9167 25V6.25002C22.9167 5.69749 22.6972 5.16758 22.3065 4.77688C21.9158 4.38618 21.3859 4.16669 20.8333 4.16669Z" fill="#FF7373"/>
<path d="M41.6663 4.16669H29.1663C28.6138 4.16669 28.0839 4.38618 27.6932 4.77688C27.3025 5.16758 27.083 5.69749 27.083 6.25002V16.6667C27.083 17.2192 27.3025 17.7491 27.6932 18.1398C28.0839 18.5305 28.6138 18.75 29.1663 18.75H41.6663C42.2189 18.75 42.7488 18.5305 43.1395 18.1398C43.5302 17.7491 43.7497 17.2192 43.7497 16.6667V6.25002C43.7497 5.69749 43.5302 5.16758 43.1395 4.77688C42.7488 4.38618 42.2189 4.16669 41.6663 4.16669Z" fill="#FF3636"/>
<path d="M41.6663 22.9167H29.1663C28.6138 22.9167 28.0839 23.1362 27.6932 23.5269C27.3025 23.9176 27.083 24.4475 27.083 25V43.75C27.083 44.3026 27.3025 44.8325 27.6932 45.2232C28.0839 45.6139 28.6138 45.8334 29.1663 45.8334H41.6663C42.2189 45.8334 42.7488 45.6139 43.1395 45.2232C43.5302 44.8325 43.7497 44.3026 43.7497 43.75V25C43.7497 24.4475 43.5302 23.9176 43.1395 23.5269C42.7488 23.1362 42.2189 22.9167 41.6663 22.9167Z" fill="#D723FF"/>
</g>
<defs>
<clipPath id="clip0_60_533">
<rect width="50" height="50" fill="white"/>
</clipPath>
</defs>
</svg>
