<svg width="24" height="24" viewBox="0 0 24 24" fill="none" xmlns="http://www.w3.org/2000/svg">
<g clip-path="url(#clip0_60_793)">
<path d="M21.333 4H2.66634C2.31272 4 1.97358 4.14048 1.72353 4.39052C1.47348 4.64057 1.33301 4.97971 1.33301 5.33333V18.6667C1.33301 19.0203 1.47348 19.3594 1.72353 19.6095C1.97358 19.8595 2.31272 20 2.66634 20H21.333C21.6866 20 22.0258 19.8595 22.2758 19.6095C22.5259 19.3594 22.6663 19.0203 22.6663 18.6667V5.33333C22.6663 4.97971 22.5259 4.64057 22.2758 4.39052C22.0258 4.14048 21.6866 4 21.333 4ZM12.6663 14.6667H5.99967C5.82286 14.6667 5.65329 14.5964 5.52827 14.4714C5.40325 14.3464 5.33301 14.1768 5.33301 14C5.33301 13.8232 5.40325 13.6536 5.52827 13.5286C5.65329 13.4036 5.82286 13.3333 5.99967 13.3333H12.6663C12.8432 13.3333 13.0127 13.4036 13.1377 13.5286C13.2628 13.6536 13.333 13.8232 13.333 14C13.333 14.1768 13.2628 14.3464 13.1377 14.4714C13.0127 14.5964 12.8432 14.6667 12.6663 14.6667ZM17.9997 12H5.99967C5.82286 12 5.65329 11.9298 5.52827 11.8047C5.40325 11.6797 5.33301 11.5101 5.33301 11.3333C5.33301 11.1565 5.40325 10.987 5.52827 10.8619C5.65329 10.7369 5.82286 10.6667 5.99967 10.6667H17.9997C18.1765 10.6667 18.3461 10.7369 18.4711 10.8619C18.5961 10.987 18.6663 11.1565 18.6663 11.3333C18.6663 11.5101 18.5961 11.6797 18.4711 11.8047C18.3461 11.9298 18.1765 12 17.9997 12ZM17.9997 9.33333H5.99967C5.82286 9.33333 5.65329 9.26309 5.52827 9.13807C5.40325 9.01305 5.33301 8.84348 5.33301 8.66667C5.33301 8.48986 5.40325 8.32029 5.52827 8.19526C5.65329 8.07024 5.82286 8 5.99967 8H17.9997C18.1765 8 18.3461 8.07024 18.4711 8.19526C18.5961 8.32029 18.6663 8.48986 18.6663 8.66667C18.6663 8.84348 18.5961 9.01305 18.4711 9.13807C18.3461 9.26309 18.1765 9.33333 17.9997 9.33333Z" fill="#13278A"/>
</g>
<defs>
<clipPath id="clip0_60_793">
<rect width="24" height="24" fill="white"/>
</clipPath>
</defs>
</svg>
