<svg width="24" height="24" viewBox="0 0 24 24" fill="none" xmlns="http://www.w3.org/2000/svg">
<path d="M2.61621 11.352C2.61621 11.832 2.81621 12.2 3.21621 12.456L11.2562 17.808C11.4642 17.952 11.6882 18.032 11.9282 18.048C12.1682 18.064 12.4002 18.008 12.6242 17.88C12.8482 17.752 13.0242 17.584 13.1522 17.376C13.2802 17.168 13.3442 16.944 13.3442 16.704V14.016C15.0722 14.016 16.6242 14.512 18.0002 15.504C19.3762 16.496 20.3442 17.784 20.9042 19.368C21.2242 18.472 21.3842 17.584 21.3842 16.704C21.3842 15.248 21.0242 13.904 20.3042 12.672C19.5842 11.44 18.6082 10.464 17.3762 9.744C16.1442 9.024 14.8002 8.664 13.3442 8.664V5.976C13.3442 5.736 13.2802 5.512 13.1522 5.304C13.0242 5.096 12.8482 4.928 12.6242 4.8C12.4002 4.672 12.1682 4.616 11.9282 4.632C11.6882 4.648 11.4642 4.728 11.2562 4.872L3.21621 10.224C2.81621 10.48 2.61621 10.856 2.61621 11.352Z" fill="#13278A"/>
</svg>
