<svg width="50" height="50" viewBox="0 0 50 50" fill="none" xmlns="http://www.w3.org/2000/svg">
<path d="M41.8753 19.2112C38.1045 19.2112 36.5628 16.5445 38.4378 13.2737C39.5212 11.3779 38.8753 8.96121 36.9795 7.87788L33.3753 5.81538C31.7295 4.83621 29.6045 5.41955 28.6253 7.06538L28.3962 7.46121C26.5212 10.732 23.4378 10.732 21.542 7.46121L21.3128 7.06538C20.3753 5.41955 18.2503 4.83621 16.6045 5.81538L13.0003 7.87788C11.1045 8.96121 10.4587 11.3987 11.542 13.2945C13.4378 16.5445 11.8962 19.2112 8.12533 19.2112C5.95866 19.2112 4.16699 20.982 4.16699 23.1695V26.8362C4.16699 29.0029 5.93783 30.7945 8.12533 30.7945C11.8962 30.7945 13.4378 33.4612 11.542 36.732C10.4587 38.6279 11.1045 41.0445 13.0003 42.1279L16.6045 44.1904C18.2503 45.1695 20.3753 44.5862 21.3545 42.9404L21.5837 42.5445C23.4587 39.2737 26.542 39.2737 28.4378 42.5445L28.667 42.9404C29.6462 44.5862 31.7712 45.1695 33.417 44.1904L37.0212 42.1279C38.917 41.0445 39.5628 38.607 38.4795 36.732C36.5837 33.4612 38.1253 30.7945 41.8962 30.7945C44.0628 30.7945 45.8545 29.0237 45.8545 26.8362V23.1695C45.8337 21.0029 44.0628 19.2112 41.8753 19.2112ZM25.0003 31.7737C21.2712 31.7737 18.2295 28.732 18.2295 25.0029C18.2295 21.2737 21.2712 18.232 25.0003 18.232C28.7295 18.232 31.7712 21.2737 31.7712 25.0029C31.7712 28.732 28.7295 31.7737 25.0003 31.7737Z" fill="#5482FE"/>
</svg>
