<svg width="50" height="50" viewBox="0 0 50 50" fill="none" xmlns="http://www.w3.org/2000/svg">
<path fill-rule="evenodd" clip-rule="evenodd" d="M25.0003 4.16663C36.5063 4.16663 45.8337 13.4939 45.8337 25C45.8337 36.5059 36.5063 45.8333 25.0003 45.8333C13.4944 45.8333 4.16699 36.5059 4.16699 25C4.16699 13.4939 13.4944 4.16663 25.0003 4.16663ZM27.0882 22.9166H22.9216V35.4166H27.0882V22.9166ZM25.0215 14.0625C23.5026 14.0625 22.4007 15.1582 22.4007 16.6377C22.4007 18.1771 23.4735 19.2708 25.0215 19.2708C26.5093 19.2708 27.6091 18.1771 27.6091 16.6666C27.6091 15.1582 26.5093 14.0625 25.0215 14.0625Z" fill="#D723FF"/>
</svg>
