<svg width="50" height="50" viewBox="0 0 50 50" fill="none" xmlns="http://www.w3.org/2000/svg">
<path fill-rule="evenodd" clip-rule="evenodd" d="M7.29199 19.9324V30.0675C7.29199 34.8454 7.29199 37.2342 8.79535 38.7185C10.1611 40.0669 12.2832 40.1902 16.2888 40.2017C16.0771 38.7967 16.0329 37.1183 16.0218 35.1435C16.017 34.304 16.7026 33.6196 17.553 33.6148C18.4034 33.6102 19.0967 34.2871 19.1014 35.1267C19.1139 37.3431 19.1722 38.9144 19.394 40.1067C19.6078 41.2556 19.951 41.9206 20.4509 42.4142C21.0191 42.9752 21.8168 43.341 23.3235 43.5408C24.8743 43.7469 26.9297 43.75 29.8768 43.75H31.9299C34.8768 43.75 36.9322 43.7469 38.483 43.5408C39.9897 43.341 40.7874 42.9752 41.3555 42.4142C41.9239 41.8531 42.2943 41.0654 42.4968 39.5781C42.7053 38.0471 42.7087 36.0177 42.7087 33.1081V16.8919C42.7087 13.9823 42.7053 11.953 42.4968 10.4219C42.2943 8.93448 41.9239 8.14683 41.3555 7.58583C40.7874 7.02483 39.9897 6.65906 38.483 6.45908C36.9322 6.25323 34.8768 6.25 31.9299 6.25H29.8768C26.9297 6.25 24.8743 6.25323 23.3235 6.45908C21.8168 6.65906 21.0191 7.02483 20.4509 7.58583C19.951 8.07931 19.6078 8.74433 19.394 9.89327C19.1722 11.0857 19.1139 12.6568 19.1014 14.8733C19.0967 15.7129 18.4034 16.3898 17.553 16.3851C16.7026 16.3804 16.017 15.696 16.0218 14.8564C16.0329 12.8817 16.0771 11.2033 16.2888 9.79844C12.2832 9.80973 10.1611 9.9331 8.79535 11.2816C7.29199 12.7658 7.29199 15.1547 7.29199 19.9324ZM12.3625 26.075C11.7612 25.4812 11.7612 24.5187 12.3625 23.925L16.4687 19.871C17.0701 19.2773 18.0451 19.2773 18.6464 19.871C19.2477 20.4647 19.2477 21.4273 18.6464 22.021L17.1688 23.4798H31.9293C32.7797 23.4798 33.4693 24.1604 33.4693 25C33.4693 25.8396 32.7797 26.5202 31.9293 26.5202H17.1688L18.6464 27.979C19.2477 28.5727 19.2477 29.5354 18.6464 30.129C18.0451 30.7227 17.0701 30.7227 16.4687 30.129L12.3625 26.075Z" fill="#FF0000"/>
</svg>
