<svg width="50" height="50" viewBox="0 0 50 50" fill="none" xmlns="http://www.w3.org/2000/svg">
<path d="M45.833 10.4166C45.833 13.8684 43.0349 16.6666 39.583 16.6666C36.1311 16.6666 33.333 13.8684 33.333 10.4166C33.333 6.96486 36.1311 4.16663 39.583 4.16663C43.0349 4.16663 45.833 6.96486 45.833 10.4166Z" fill="#FF4242"/>
<path opacity="0.5" d="M31.7393 5.28071C29.6255 4.5585 27.3587 4.16663 25.0003 4.16663C13.4944 4.16663 4.16699 13.494 4.16699 25C4.16699 28.3327 4.94953 31.4825 6.34087 34.276C6.71062 35.0183 6.83368 35.8668 6.61933 36.6679L5.37847 41.3056C4.8398 43.3187 6.6816 45.1604 8.6948 44.6218L13.3324 43.381C14.1335 43.1666 14.982 43.2897 15.7243 43.6593C18.5177 45.0508 21.6676 45.8333 25.0003 45.8333C36.5062 45.8333 45.8337 36.5058 45.8337 25C45.8337 22.6416 45.4418 20.3747 44.7195 18.2609C43.2445 19.2287 41.4797 19.7916 39.5837 19.7916C34.4059 19.7916 30.2087 15.5943 30.2087 10.4166C30.2087 8.52052 30.7716 6.75588 31.7393 5.28071Z" fill="#6A00FF"/>
</svg>
