<svg width="50" height="50" viewBox="0 0 50 50" fill="none" xmlns="http://www.w3.org/2000/svg">
<path d="M43.2813 12.9688L27.3438 25.1562L41.5625 39.375C44.8438 35.4688 46.875 30.4688 46.875 25C46.875 20.4687 45.4688 16.4062 43.2813 12.9688Z" fill="#FF3636"/>
<path d="M26.5625 21.875L41.25 10.4687C37.5 6.40625 32.3438 3.59375 26.5625 3.125V21.875Z" fill="#5482FE"/>
<path d="M23.9062 26.0938C23.75 25.9375 23.75 25.9375 23.9062 26.0938C23.75 25.9375 23.75 25.7812 23.75 25.7812C23.75 25.625 23.5938 25.625 23.5938 25.4687C23.5938 25.3125 23.5938 25.3125 23.5938 25.1562V25V3.28125C12.0312 4.0625 3.125 13.4375 3.125 25C3.125 37.0312 12.9688 46.875 25 46.875C30.4688 46.875 35.4688 44.8438 39.375 41.5625L23.9062 26.0938Z" fill="#FF7373"/>
</svg>
