<svg width="24" height="24" viewBox="0 0 24 24" fill="none" xmlns="http://www.w3.org/2000/svg">
<path d="M22.286 5.52295V23.9999H2.24023V0H16.7631L19.3355 2.57245L22.286 5.52295Z" fill="#FFFEFE"/>
<path d="M11.3278 1.60767H1.71387V5.90929H11.3278V1.60767Z" fill="#B43331"/>
<path d="M5.1622 3.01781C5.11977 2.91534 5.06324 2.82347 4.98552 2.74575C4.90776 2.66803 4.81237 2.60442 4.70282 2.562C4.58976 2.51606 4.46249 2.49487 4.32121 2.49487H3.26465V5.22276H3.79823V4.19447H4.32121C4.46254 4.19447 4.58976 4.17328 4.70282 4.12734C4.81237 4.08492 4.90771 4.02136 4.98552 3.94359C5.06324 3.86587 5.11982 3.77751 5.1622 3.67153C5.20101 3.56906 5.22224 3.45951 5.22224 3.34645C5.2222 3.22983 5.20101 3.12028 5.1622 3.01781ZM4.5862 3.61495C4.51551 3.68208 4.4166 3.71742 4.29641 3.71742H3.79823V2.96831H4.29641C4.4166 2.96831 4.51551 3.00365 4.5862 3.07429C4.65332 3.14142 4.68862 3.23329 4.68862 3.34636C4.68866 3.45595 4.65332 3.54783 4.5862 3.61495Z" fill="#FFFEFE"/>
<path d="M7.7135 3.55139C7.70998 3.456 7.70647 3.3712 7.69583 3.29344C7.68528 3.21567 7.66756 3.14503 7.64281 3.0779C7.61811 3.0143 7.58628 2.95069 7.54386 2.89415C7.44847 2.75634 7.33189 2.65387 7.20111 2.59026C7.06686 2.52665 6.90786 2.49487 6.72055 2.49487H5.73828V5.22276H6.72059C6.90791 5.22276 7.06691 5.19098 7.20116 5.12737C7.33194 5.06376 7.44852 4.96129 7.54391 4.82348C7.58633 4.76695 7.61816 4.70334 7.64286 4.63973C7.66761 4.57261 7.68528 4.50192 7.69588 4.4242C7.70652 4.34648 7.70998 4.26164 7.71355 4.16625C7.71706 4.07437 7.71706 3.9719 7.71706 3.85884C7.71702 3.74578 7.71702 3.64326 7.7135 3.55139ZM7.17992 4.13447C7.17992 4.21575 7.17289 4.27936 7.16577 4.33589C7.15869 4.3889 7.14814 4.43836 7.13398 4.4737C7.11988 4.51256 7.09864 4.5479 7.07394 4.57969C6.98558 4.69275 6.85133 4.74576 6.67466 4.74576H6.26834V2.96836H6.67466C6.85133 2.96836 6.98563 3.02489 7.07394 3.13795C7.09869 3.16973 7.11988 3.20156 7.13398 3.24042C7.14814 3.27928 7.15873 3.32522 7.16577 3.38175C7.17289 3.43476 7.17992 3.50189 7.17992 3.57961C7.18344 3.65737 7.18344 3.75276 7.18344 3.85875C7.18348 3.96483 7.18348 4.0567 7.17992 4.13447Z" fill="#FFFEFE"/>
<path d="M9.99293 2.96836V2.49487H8.19434V5.22276H8.72791V4.11679H9.80566V3.63975H8.72791V2.96836H9.99293Z" fill="#FFFEFE"/>
<path d="M5.1622 3.01781C5.11977 2.91534 5.06324 2.82347 4.98552 2.74575C4.90776 2.66803 4.81237 2.60442 4.70282 2.562C4.58976 2.51606 4.46249 2.49487 4.32121 2.49487H3.26465V5.22276H3.79823V4.19447H4.32121C4.46254 4.19447 4.58976 4.17328 4.70282 4.12734C4.81237 4.08492 4.90771 4.02136 4.98552 3.94359C5.06324 3.86587 5.11982 3.77751 5.1622 3.67153C5.20101 3.56906 5.22224 3.45951 5.22224 3.34645C5.2222 3.22983 5.20101 3.12028 5.1622 3.01781ZM4.5862 3.61495C4.51551 3.68208 4.4166 3.71742 4.29641 3.71742H3.79823V2.96831H4.29641C4.4166 2.96831 4.51551 3.00365 4.5862 3.07429C4.65332 3.14142 4.68862 3.23329 4.68862 3.34636C4.68866 3.45595 4.65332 3.54783 4.5862 3.61495Z" fill="#FFFEFE"/>
<path opacity="0.08" d="M22.286 5.52301V24H2.24023V19.6678L11.6112 10.2969L12.166 9.74209L12.4734 9.43463L12.9858 8.92229L13.5935 8.31451L19.3355 2.57251L22.286 5.52301Z" fill="#040000"/>
<path d="M22.2862 5.52356H16.7627V0L22.2862 5.52356Z" fill="#BBBBBA"/>
<path d="M19.424 17.3747C19.3074 17.1698 19.1484 16.9754 18.9505 16.7987C18.788 16.6503 18.5972 16.5125 18.3816 16.3853C17.5124 15.873 16.2721 15.6256 14.5866 15.6256H14.417C14.3251 15.5408 14.2297 15.456 14.1308 15.3677C13.4912 14.7917 12.9824 14.1662 12.5866 13.4702C13.3639 11.7564 13.735 10.2299 13.6891 8.92951C13.682 8.71042 13.6501 8.50548 13.5936 8.31465C13.5089 8.00725 13.3675 7.73514 13.1696 7.51253C13.1661 7.50901 13.1661 7.50901 13.1626 7.50545C12.8481 7.15211 12.4099 6.95068 11.9647 6.95068C11.5159 6.95068 11.1025 7.14503 10.8021 7.50193C10.5053 7.85528 10.3463 8.3394 10.3392 8.90828C10.3286 9.77753 10.3993 10.6008 10.5477 11.3605C10.5618 11.4206 10.5724 11.4807 10.5865 11.5407C10.7349 12.2298 10.954 12.8835 11.2367 13.4912C10.9046 14.1662 10.5689 14.7492 10.3357 15.1449C10.159 15.4453 9.96465 15.7598 9.76322 16.0743C8.85511 16.2369 8.08477 16.4347 7.41343 16.6821C6.50527 17.0107 5.77735 17.4347 5.25441 17.94C4.91513 18.2651 4.68549 18.6114 4.57238 18.9718C4.45224 19.3428 4.45936 19.7139 4.59361 20.046C4.71727 20.3534 4.93988 20.6114 5.23669 20.788C5.30738 20.8305 5.38158 20.8658 5.4593 20.8976C5.68547 20.9895 5.93283 21.0389 6.19074 21.0389C6.78793 21.0389 7.40274 20.781 7.92221 20.3181C8.89036 19.4523 9.8904 18.0602 10.4805 17.1803C10.9645 17.1061 11.491 17.0424 12.0847 16.9788C12.7844 16.9082 13.4027 16.8658 13.9646 16.8445C14.1377 17 14.3038 17.1484 14.4629 17.2898C15.3463 18.0777 16.0176 18.6467 16.6254 19.0459C16.6254 19.0494 16.6289 19.0494 16.6324 19.0494C16.8728 19.2084 17.1024 19.3392 17.3321 19.4452C17.59 19.5654 17.8515 19.629 18.1201 19.629C18.4593 19.629 18.7773 19.5265 19.0423 19.3392C19.3109 19.1449 19.5052 18.8657 19.5936 18.5513C19.6961 18.1733 19.636 17.7528 19.424 17.3747ZM11.6114 10.297C11.5619 9.85881 11.5407 9.403 11.5478 8.92243C11.5548 8.46662 11.7209 8.15917 11.9647 8.15917C12.1484 8.15917 12.3428 8.32525 12.4312 8.64325C12.4559 8.73864 12.4736 8.84818 12.4771 8.97184C12.4841 9.12025 12.4806 9.27573 12.4736 9.43473C12.4524 9.88351 12.3746 10.3605 12.2403 10.8729C12.1591 11.2015 12.0531 11.5443 11.9223 11.9012C11.7739 11.3994 11.6678 10.8659 11.6114 10.297ZM5.7174 19.5973C5.6573 19.4489 5.72443 19.1627 6.09193 18.8093C6.65372 18.2722 7.53357 17.8482 8.75977 17.5266C8.52652 17.8446 8.29688 18.1344 8.07422 18.3994C7.73499 18.8093 7.40991 19.1556 7.11661 19.417C6.86579 19.6432 6.59011 19.7845 6.32865 19.8199C6.28271 19.827 6.23677 19.8305 6.19083 19.8305C5.96119 19.8305 5.77388 19.7387 5.7174 19.5973ZM11.364 15.8411L11.3887 15.8023L11.3498 15.8094C11.3569 15.7917 11.3675 15.774 11.3781 15.7599C11.5265 15.509 11.7137 15.1875 11.9152 14.8164L11.9328 14.8553L11.9788 14.7599C12.1272 14.9719 12.2897 15.1804 12.4593 15.3818C12.5407 15.4772 12.6255 15.5691 12.7102 15.6609L12.6537 15.6645L12.7032 15.7104C12.5583 15.721 12.4064 15.7352 12.2544 15.7493C12.159 15.7599 12.0601 15.7669 11.9611 15.7775C11.7562 15.7987 11.5548 15.8199 11.364 15.8411ZM17.311 18.046C16.8905 17.7775 16.4205 17.3994 15.841 16.8941C16.6643 16.9789 17.311 17.1591 17.7703 17.4277C17.9717 17.5443 18.1237 17.6644 18.2261 17.781C18.3958 17.9612 18.4559 18.1238 18.424 18.2333C18.3958 18.3429 18.2721 18.4171 18.1201 18.4171C18.0317 18.4171 17.9399 18.3959 17.8445 18.3499C17.682 18.2722 17.5124 18.1768 17.3321 18.0602C17.3251 18.0602 17.318 18.0531 17.311 18.046Z" fill="#B43331"/>
</svg>
