<svg width="15" height="15" viewBox="0 0 15 15" fill="none" xmlns="http://www.w3.org/2000/svg">
<path d="M14.8109 1.07402L3.24219 12.6396C3.49229 12.7615 3.76661 12.8255 4.04482 12.827H6.02612C6.19187 12.8265 6.35088 12.8924 6.46774 13.01L7.54147 14.0831C8.12374 14.6694 8.91572 14.9994 9.74201 15C10.0832 14.9997 10.422 14.9438 10.7451 14.8345C11.8592 14.4693 12.6696 13.5035 12.8358 12.3429L14.9464 2.31766C15.0471 1.89993 14.9992 1.46019 14.8109 1.07402Z" fill="#13278A"/>
<path d="M12.7003 0.0483689L2.6994 2.15525C0.9906 2.39001 -0.204345 3.96558 0.0304158 5.67438C0.123143 6.34921 0.433943 6.97526 0.915469 7.45705L1.98858 8.53016C2.10588 8.64742 2.17173 8.80653 2.17161 8.97239V10.9537C2.17304 11.2319 2.23711 11.5063 2.359 11.7563L13.9258 0.18768C13.5457 0.000877903 13.1126 -0.0483405 12.7003 0.0483689Z" fill="#13278A"/>
</svg>
