<svg width="50" height="50" viewBox="0 0 50 50" fill="none" xmlns="http://www.w3.org/2000/svg">
<path fill-rule="evenodd" clip-rule="evenodd" d="M29.1834 39.5894L29.1955 35.4167C29.1955 34.2661 30.1305 33.3334 31.2841 33.3334C32.4374 33.3334 33.3726 34.2661 33.3726 35.4167V39.5344C33.3726 40.5375 33.3726 41.0392 33.6943 41.3467C34.0159 41.6544 34.508 41.6334 35.4924 41.5917C39.3734 41.4275 41.758 40.9025 43.4387 39.2259C45.1234 37.5455 45.6482 35.1596 45.8116 31.2719C45.8441 30.5011 45.8603 30.1155 45.7164 29.8584C45.5724 29.6011 44.9976 29.2802 43.848 28.6382C42.5714 27.9252 41.7084 26.5632 41.7084 25C41.7084 23.4369 42.5714 22.0748 43.848 21.3619C44.9976 20.7199 45.5724 20.3989 45.7164 20.1418C45.8603 19.8846 45.8441 19.4991 45.8116 18.7281C45.6482 14.8404 45.1234 12.4547 43.4387 10.7741C41.6101 8.95012 38.9487 8.48921 34.4332 8.37275C33.8507 8.35773 33.3726 8.8275 33.3726 9.40875V14.5834C33.3726 15.734 32.4374 16.6667 31.2841 16.6667C30.1305 16.6667 29.1955 15.734 29.1955 14.5834L29.1803 9.37202C29.1787 8.79792 28.7116 8.33337 28.1362 8.33337H20.8233C12.947 8.33337 9.0088 8.33337 6.56195 10.7741C4.87722 12.4547 4.35247 14.8404 4.18903 18.7281C4.15661 19.4991 4.14041 19.8846 4.28436 20.1417C4.42834 20.3989 5.00309 20.7199 6.15257 21.3619C7.4292 22.0748 8.29214 23.4369 8.29214 25C8.29214 26.5632 7.4292 27.9252 6.15257 28.6382C5.00309 29.2802 4.42834 29.6011 4.28436 29.8584C4.14041 30.1155 4.15661 30.5011 4.18903 31.2719C4.35247 35.1596 4.87722 37.5455 6.56195 39.2259C9.0088 41.6667 12.9469 41.6667 20.8233 41.6667H27.0949C28.0768 41.6667 28.5678 41.6667 28.8734 41.3627C29.1791 41.0586 29.1805 40.569 29.1834 39.5894ZM33.3726 27.0834V22.9167C33.3726 21.7661 32.4374 20.8334 31.2841 20.8334C30.1305 20.8334 29.1955 21.7661 29.1955 22.9167V27.0834C29.1955 28.234 30.1305 29.1667 31.2841 29.1667C32.4374 29.1667 33.3726 28.234 33.3726 27.0834Z" fill="#FF7373"/>
</svg>
