<svg width="24" height="24" viewBox="0 0 24 24" fill="none" xmlns="http://www.w3.org/2000/svg">
<path d="M13.902 1.74221V3.65096C16.452 3.66521 19.242 3.62471 21.7927 3.66521C21.8827 3.64956 21.9751 3.65511 22.0625 3.68142C22.15 3.70773 22.2301 3.75407 22.2965 3.81676C22.3629 3.87944 22.4138 3.95675 22.4451 4.04254C22.4763 4.12833 22.4872 4.22024 22.4767 4.31096C22.5173 9.01046 22.467 13.9785 22.5007 18.6787C22.4858 18.9787 22.5075 19.5172 22.461 19.8165C22.4018 20.1982 22.2315 20.2717 21.8483 20.3235C21.6338 20.3527 21.2752 20.349 21.0645 20.3587C18.9705 20.3482 16.878 20.3505 14.784 20.3512H13.9028V22.2615L1.5 20.3497C1.5 14.7832 1.5 9.21821 1.5 3.65471L13.902 1.74221Z" fill="#FF2424"/>
<path d="M13.9023 4.36646H21.7773V19.635H13.9023V17.7262H20.1048V16.7722H13.9023V15.5797H20.1048V14.625H13.9023V13.4325H20.1048V12.4777H13.9023V11.2852H20.1048V10.3305H13.9023V9.13796H20.1048V8.18321H13.9023V6.99071H20.1048V6.03596H13.9023V4.36646Z" fill="white"/>
<path d="M6.42995 8.58229C6.87995 8.55604 7.3367 8.53729 7.7897 8.51329C8.10695 10.1235 8.4317 11.7315 8.7752 13.335C9.04445 11.679 9.34295 10.0283 9.6317 8.37529C10.1087 8.35879 10.5857 8.33254 11.0604 8.30029C10.5212 10.6118 10.0487 12.9428 9.45995 15.2408C9.0617 15.4485 8.46545 15.231 7.99295 15.2648C7.67569 13.6853 7.30595 12.1148 7.0217 10.5293C6.7427 12.075 6.3797 13.5998 6.0602 15.1313C5.6022 15.1073 5.14245 15.0795 4.68095 15.048C4.28495 12.948 3.81995 10.8638 3.4502 8.75929C3.8582 8.74054 4.26845 8.72329 4.67645 8.70904C4.92245 10.2285 5.20145 11.7413 5.41595 13.263C5.75195 11.703 6.0962 10.1423 6.42995 8.58229Z" fill="white"/>
</svg>
